<svg width="3059" height="1017" xmlns="http://www.w3.org/2000/svg" xmlns:xlink="http://www.w3.org/1999/xlink" xml:space="preserve" overflow="hidden"><defs><clipPath id="clip0"><rect x="361" y="225" width="3059" height="1017"/></clipPath></defs><g clip-path="url(#clip0)" transform="translate(-361 -225)"><path d="M364.5 367C364.5 290.509 426.732 228.5 503.5 228.5 580.268 228.5 642.5 290.509 642.5 367 642.5 443.492 580.268 505.5 503.5 505.5 426.732 505.5 364.5 443.492 364.5 367Z" stroke="#000000" stroke-width="6.875" stroke-miterlimit="8" fill="#FFFFFF" fill-rule="evenodd"/><text font-family="Times New Roman,Times New Roman_MSFontService,sans-serif" font-weight="400" font-size="110" transform="matrix(1 0 0 1 475.465 406)">5</text><path d="M761.5 367C761.5 290.509 823.508 228.5 900 228.5 976.491 228.5 1038.5 290.509 1038.5 367 1038.5 443.492 976.491 505.5 900 505.5 823.508 505.5 761.5 443.492 761.5 367Z" stroke="#000000" stroke-width="6.875" stroke-miterlimit="8" fill="#FFFFFF" fill-rule="evenodd"/><text font-family="Times New Roman,Times New Roman_MSFontService,sans-serif" font-weight="400" font-size="110" transform="matrix(1 0 0 1 871.844 406)">8</text><path d="M1157.5 367C1157.5 290.509 1219.73 228.5 1296.5 228.5 1373.27 228.5 1435.5 290.509 1435.5 367 1435.5 443.492 1373.27 505.5 1296.5 505.5 1219.73 505.5 1157.5 443.492 1157.5 367Z" stroke="#000000" stroke-width="6.875" stroke-miterlimit="8" fill="#FFFFFF" fill-rule="evenodd"/><text font-family="Times New Roman,Times New Roman_MSFontService,sans-serif" font-weight="400" font-size="110" transform="matrix(1 0 0 1 1268.22 406)">2</text><path d="M1553.5 367C1553.5 290.509 1615.73 228.5 1692.5 228.5 1769.27 228.5 1831.5 290.509 1831.5 367 1831.5 443.492 1769.27 505.5 1692.5 505.5 1615.73 505.5 1553.5 443.492 1553.5 367Z" stroke="#000000" stroke-width="6.875" stroke-miterlimit="8" fill="#FFFFFF" fill-rule="evenodd"/><text font-family="Times New Roman,Times New Roman_MSFontService,sans-serif" font-weight="400" font-size="110" transform="matrix(1 0 0 1 1664.6 406)">3</text><path d="M1950.5 367C1950.5 290.509 2012.51 228.5 2089 228.5 2165.49 228.5 2227.5 290.509 2227.5 367 2227.5 443.492 2165.49 505.5 2089 505.5 2012.51 505.5 1950.5 443.492 1950.5 367Z" stroke="#000000" stroke-width="6.875" stroke-miterlimit="8" fill="#FFFFFF" fill-rule="evenodd"/><text font-family="Times New Roman,Times New Roman_MSFontService,sans-serif" font-weight="400" font-size="110" transform="matrix(1 0 0 1 2060.98 406)">7</text><path d="M2346.5 367C2346.5 290.509 2408.73 228.5 2485.5 228.5 2562.27 228.5 2624.5 290.509 2624.5 367 2624.5 443.492 2562.27 505.5 2485.5 505.5 2408.73 505.5 2346.5 443.492 2346.5 367Z" stroke="#000000" stroke-width="6.875" stroke-miterlimit="8" fill="#FFFFFF" fill-rule="evenodd"/><text font-family="Times New Roman,Times New Roman_MSFontService,sans-serif" font-weight="400" font-size="110" transform="matrix(1 0 0 1 2457.36 406)">9</text><path d="M365.5 1099.5C365.5 1022.73 427.732 960.5 504.5 960.5 581.268 960.5 643.5 1022.73 643.5 1099.5 643.5 1176.27 581.268 1238.5 504.5 1238.5 427.732 1238.5 365.5 1176.27 365.5 1099.5Z" stroke="#000000" stroke-width="6.875" stroke-miterlimit="8" fill="#FFFFFF" fill-rule="evenodd"/><text font-family="Times New Roman,Times New Roman_MSFontService,sans-serif" font-weight="400" font-size="110" transform="matrix(1 0 0 1 476.224 1139)">8</text><path d="M761.5 1099.5C761.5 1022.73 823.732 960.5 900.5 960.5 977.268 960.5 1039.5 1022.73 1039.5 1099.5 1039.5 1176.27 977.268 1238.5 900.5 1238.5 823.732 1238.5 761.5 1176.27 761.5 1099.5Z" stroke="#000000" stroke-width="6.875" stroke-miterlimit="8" fill="#FFFFFF" fill-rule="evenodd"/><text font-family="Times New Roman,Times New Roman_MSFontService,sans-serif" font-weight="400" font-size="110" transform="matrix(1 0 0 1 872.603 1139)">3</text><path d="M1158.5 1099.5C1158.5 1022.73 1220.51 960.5 1297 960.5 1373.49 960.5 1435.5 1022.73 1435.5 1099.5 1435.5 1176.27 1373.49 1238.5 1297 1238.5 1220.51 1238.5 1158.5 1176.27 1158.5 1099.5Z" stroke="#000000" stroke-width="6.875" stroke-miterlimit="8" fill="#FFFFFF" fill-rule="evenodd"/><text font-family="Times New Roman,Times New Roman_MSFontService,sans-serif" font-weight="400" font-size="110" transform="matrix(1 0 0 1 1268.98 1139)">7</text><path d="M2742.5 367C2742.5 290.509 2804.73 228.5 2881.5 228.5 2958.27 228.5 3020.5 290.509 3020.5 367 3020.5 443.492 2958.27 505.5 2881.5 505.5 2804.73 505.5 2742.5 443.492 2742.5 367Z" stroke="#000000" stroke-width="6.875" stroke-miterlimit="8" fill="#FFFFFF" fill-rule="evenodd"/><text font-family="Times New Roman,Times New Roman_MSFontService,sans-serif" font-weight="400" font-size="110" transform="matrix(1 0 0 1 2853.74 406)">2</text><path d="M3139.5 367C3139.5 290.509 3201.51 228.5 3278 228.5 3354.49 228.5 3416.5 290.509 3416.5 367 3416.5 443.492 3354.49 505.5 3278 505.5 3201.51 505.5 3139.5 443.492 3139.5 367Z" stroke="#000000" stroke-width="6.875" stroke-miterlimit="8" fill="#FFFFFF" fill-rule="evenodd"/><text font-family="Times New Roman,Times New Roman_MSFontService,sans-serif" font-weight="400" font-size="110" transform="matrix(1 0 0 1 3250.12 406)">4</text><path d="M1553.5 1099.5C1553.5 1022.73 1615.73 960.5 1692.5 960.5 1769.27 960.5 1831.5 1022.73 1831.5 1099.5 1831.5 1176.27 1769.27 1238.5 1692.5 1238.5 1615.73 1238.5 1553.5 1176.27 1553.5 1099.5Z" stroke="#000000" stroke-width="6.875" stroke-miterlimit="8" fill="#FFFFFF" fill-rule="evenodd"/><text font-family="Times New Roman,Times New Roman_MSFontService,sans-serif" font-weight="400" font-size="110" transform="matrix(1 0 0 1 1664.6 1139)">4</text><path d="M2.59307-2.25663 383.17 435.062 377.984 439.575-2.59307 2.25663ZM387.94 424.833 395.621 454.605 367.195 442.887Z" transform="matrix(-1 0 0 1 900.121 505.5)"/><path d="M1.71124-2.98128 773.836 440.215 770.414 446.177-1.71124 2.98128ZM774.995 428.989 792 454.604 761.305 452.839Z" transform="matrix(-1 0 0 1 1692.5 505.5)"/><path d="M1.71124-2.98128 773.836 440.215 770.414 446.177-1.71124 2.98128ZM774.995 428.989 792 454.604 761.305 452.839Z" transform="matrix(-1 0 0 1 2088.5 505.5)"/><path d="M0.947435-3.30436 1564.44 444.986 1562.55 451.594-0.947435 3.30436ZM1562.87 433.807 1585.52 454.604 1555.29 460.242Z" transform="matrix(-1 0 0 1 3278.02 505.5)"/></g></svg>