<svg width="1425" height="958" xmlns="http://www.w3.org/2000/svg" xmlns:xlink="http://www.w3.org/1999/xlink" xml:space="preserve" overflow="hidden"><defs><clipPath id="clip0"><rect x="192" y="137" width="1425" height="958"/></clipPath></defs><g clip-path="url(#clip0)" transform="translate(-192 -137)"><path d="M374 209C374 196.85 383.85 187 396 187 408.15 187 418 196.85 418 209 418 221.15 408.15 231 396 231 383.85 231 374 221.15 374 209Z" fill="#000000" fill-rule="evenodd" fill-opacity="1"/><path d="M374 326C374 313.85 383.85 304 396 304 408.15 304 418 313.85 418 326 418 338.15 408.15 348 396 348 383.85 348 374 338.15 374 326Z" fill="#000000" fill-rule="evenodd" fill-opacity="1"/><path d="M374 443C374 430.85 383.85 421 396 421 408.15 421 418 430.85 418 443 418 455.15 408.15 465 396 465 383.85 465 374 455.15 374 443Z" fill="#000000" fill-rule="evenodd" fill-opacity="1"/><path d="M374 561C374 548.85 383.85 539 396 539 408.15 539 418 548.85 418 561 418 573.15 408.15 583 396 583 383.85 583 374 573.15 374 561Z" fill="#000000" fill-rule="evenodd" fill-opacity="1"/><path d="M374 678C374 665.85 383.85 656 396 656 408.15 656 418 665.85 418 678 418 690.15 408.15 700 396 700 383.85 700 374 690.15 374 678Z" fill="#000000" fill-rule="evenodd" fill-opacity="1"/><path d="M374 795C374 782.85 383.85 773 396 773 408.15 773 418 782.85 418 795 418 807.15 408.15 817 396 817 383.85 817 374 807.15 374 795Z" fill="#000000" fill-rule="evenodd" fill-opacity="1"/><path d="M374 913C374 900.85 383.85 891 396 891 408.15 891 418 900.85 418 913 418 925.15 408.15 935 396 935 383.85 935 374 925.15 374 913Z" fill="#000000" fill-rule="evenodd" fill-opacity="1"/><path d="M374 1030C374 1017.85 383.85 1008 396 1008 408.15 1008 418 1017.85 418 1030 418 1042.15 408.15 1052 396 1052 383.85 1052 374 1042.15 374 1030Z" fill="#000000" fill-rule="evenodd" fill-opacity="1"/><path d="M1414 209C1414 196.85 1423.85 187 1436 187 1448.15 187 1458 196.85 1458 209 1458 221.15 1448.15 231 1436 231 1423.85 231 1414 221.15 1414 209Z" fill="#000000" fill-rule="evenodd" fill-opacity="1"/><path d="M1414 326C1414 313.85 1423.85 304 1436 304 1448.15 304 1458 313.85 1458 326 1458 338.15 1448.15 348 1436 348 1423.85 348 1414 338.15 1414 326Z" fill="#000000" fill-rule="evenodd" fill-opacity="1"/><path d="M1414 443C1414 430.85 1423.85 421 1436 421 1448.15 421 1458 430.85 1458 443 1458 455.15 1448.15 465 1436 465 1423.85 465 1414 455.15 1414 443Z" fill="#000000" fill-rule="evenodd" fill-opacity="1"/><path d="M1414 561C1414 548.85 1423.85 539 1436 539 1448.15 539 1458 548.85 1458 561 1458 573.15 1448.15 583 1436 583 1423.85 583 1414 573.15 1414 561Z" fill="#000000" fill-rule="evenodd" fill-opacity="1"/><path d="M1414 678C1414 665.85 1423.85 656 1436 656 1448.15 656 1458 665.85 1458 678 1458 690.15 1448.15 700 1436 700 1423.85 700 1414 690.15 1414 678Z" fill="#000000" fill-rule="evenodd" fill-opacity="1"/><path d="M1414 795C1414 782.85 1423.85 773 1436 773 1448.15 773 1458 782.85 1458 795 1458 807.15 1448.15 817 1436 817 1423.85 817 1414 807.15 1414 795Z" fill="#000000" fill-rule="evenodd" fill-opacity="1"/><path d="M1414 913C1414 900.85 1423.85 891 1436 891 1448.15 891 1458 900.85 1458 913 1458 925.15 1448.15 935 1436 935 1423.85 935 1414 925.15 1414 913Z" fill="#000000" fill-rule="evenodd" fill-opacity="1"/><path d="M1414 1030C1414 1017.85 1423.85 1008 1436 1008 1448.15 1008 1458 1017.85 1458 1030 1458 1042.15 1448.15 1052 1436 1052 1423.85 1052 1414 1042.15 1414 1030Z" fill="#000000" fill-rule="evenodd" fill-opacity="1"/><path d="M418.5 209.5 1415.19 209.5" stroke="#000000" stroke-width="6.875" stroke-linecap="butt" stroke-linejoin="miter" stroke-miterlimit="8" stroke-opacity="1" fill="none" fill-rule="evenodd"/><path d="M418.5 326.5 1415.19 326.5" stroke="#000000" stroke-width="6.875" stroke-linecap="butt" stroke-linejoin="miter" stroke-miterlimit="8" stroke-opacity="1" fill="none" fill-rule="evenodd"/><path d="M418.5 443.5 1415.19 443.5" stroke="#000000" stroke-width="6.875" stroke-linecap="butt" stroke-linejoin="miter" stroke-miterlimit="8" stroke-opacity="1" fill="none" fill-rule="evenodd"/><path d="M418.5 561.5 1415.19 561.5" stroke="#000000" stroke-width="6.875" stroke-linecap="butt" stroke-linejoin="miter" stroke-miterlimit="8" stroke-opacity="1" fill="none" fill-rule="evenodd"/><path d="M418.5 678.5 1415.19 678.5" stroke="#000000" stroke-width="6.875" stroke-linecap="butt" stroke-linejoin="miter" stroke-miterlimit="8" stroke-opacity="1" fill="none" fill-rule="evenodd"/><path d="M418.5 795.5 1415.19 795.5" stroke="#000000" stroke-width="6.875" stroke-linecap="butt" stroke-linejoin="miter" stroke-miterlimit="8" stroke-opacity="1" fill="none" fill-rule="evenodd"/><path d="M418.5 913.5 1415.19 913.5" stroke="#000000" stroke-width="6.875" stroke-linecap="butt" stroke-linejoin="miter" stroke-miterlimit="8" stroke-opacity="1" fill="none" fill-rule="evenodd"/><path d="M418.5 1030.5 1415.19 1030.5" stroke="#000000" stroke-width="6.875" stroke-linecap="butt" stroke-linejoin="miter" stroke-miterlimit="8" stroke-opacity="1" fill="none" fill-rule="evenodd"/><path d="M0 0 438.975 469.333" stroke="#000000" stroke-width="6.875" stroke-linecap="butt" stroke-linejoin="miter" stroke-miterlimit="8" stroke-opacity="1" fill="none" fill-rule="evenodd" transform="matrix(1 0 0 -1 975.5 678.833)"/><path d="M0 0 438.975 469.333" stroke="#000000" stroke-width="6.875" stroke-linecap="butt" stroke-linejoin="miter" stroke-miterlimit="8" stroke-opacity="1" fill="none" fill-rule="evenodd" transform="matrix(1 0 0 -1 975.5 795.833)"/><path d="M0 0 438.975 469.333" stroke="#000000" stroke-width="6.875" stroke-linecap="butt" stroke-linejoin="miter" stroke-miterlimit="8" stroke-opacity="1" fill="none" fill-rule="evenodd" transform="matrix(1 0 0 -1 975.5 912.833)"/><path d="M0 0 438.975 469.331" stroke="#000000" stroke-width="6.875" stroke-linecap="butt" stroke-linejoin="miter" stroke-miterlimit="8" stroke-opacity="1" fill="none" fill-rule="evenodd" transform="matrix(1 0 0 -1 975.5 1030.83)"/><path d="M1414.48 678.835 975.5 209.5" stroke="#000000" stroke-width="6.875" stroke-linecap="butt" stroke-linejoin="miter" stroke-miterlimit="8" stroke-opacity="1" fill="none" fill-rule="evenodd"/><path d="M1414.48 795.834 975.5 326.5" stroke="#000000" stroke-width="6.875" stroke-linecap="butt" stroke-linejoin="miter" stroke-miterlimit="8" stroke-opacity="1" fill="none" fill-rule="evenodd"/><path d="M1414.48 912.834 975.5 443.5" stroke="#000000" stroke-width="6.875" stroke-linecap="butt" stroke-linejoin="miter" stroke-miterlimit="8" stroke-opacity="1" fill="none" fill-rule="evenodd"/><path d="M1414.48 1030.83 975.5 561.5" stroke="#000000" stroke-width="6.875" stroke-linecap="butt" stroke-linejoin="miter" stroke-miterlimit="8" stroke-opacity="1" fill="none" fill-rule="evenodd"/><text fill="#000000" fill-opacity="1" font-family="Arial,Arial_MSFontService,sans-serif" font-style="normal" font-variant="normal" font-weight="400" font-stretch="normal" font-size="55" text-anchor="start" direction="ltr" writing-mode="lr-tb" unicode-bidi="normal" text-decoration="none" transform="matrix(1 0 0 1 265.736 222)">x[0]</text><text fill="#000000" fill-opacity="1" font-family="Arial,Arial_MSFontService,sans-serif" font-style="normal" font-variant="normal" font-weight="400" font-stretch="normal" font-size="55" text-anchor="start" direction="ltr" writing-mode="lr-tb" unicode-bidi="normal" text-decoration="none" transform="matrix(1 0 0 1 262.82 336)">x[2]</text><text fill="#000000" fill-opacity="1" font-family="Arial,Arial_MSFontService,sans-serif" font-style="normal" font-variant="normal" font-weight="400" font-stretch="normal" font-size="55" text-anchor="start" direction="ltr" writing-mode="lr-tb" unicode-bidi="normal" text-decoration="none" transform="matrix(1 0 0 1 260.641 456)">x[4]</text><text fill="#000000" fill-opacity="1" font-family="Arial,Arial_MSFontService,sans-serif" font-style="normal" font-variant="normal" font-weight="400" font-stretch="normal" font-size="55" text-anchor="start" direction="ltr" writing-mode="lr-tb" unicode-bidi="normal" text-decoration="none" transform="matrix(1 0 0 1 260.782 573)">x[6]</text><text fill="#000000" fill-opacity="1" font-family="Arial,Arial_MSFontService,sans-serif" font-style="normal" font-variant="normal" font-weight="400" font-stretch="normal" font-size="55" text-anchor="start" direction="ltr" writing-mode="lr-tb" unicode-bidi="normal" text-decoration="none" transform="matrix(1 0 0 1 261.365 692)">x[1]</text><text fill="#000000" fill-opacity="1" font-family="Arial,Arial_MSFontService,sans-serif" font-style="normal" font-variant="normal" font-weight="400" font-stretch="normal" font-size="55" text-anchor="start" direction="ltr" writing-mode="lr-tb" unicode-bidi="normal" text-decoration="none" transform="matrix(1 0 0 1 261.505 806)">x[3]</text><text fill="#000000" fill-opacity="1" font-family="Arial,Arial_MSFontService,sans-serif" font-style="normal" font-variant="normal" font-weight="400" font-stretch="normal" font-size="55" text-anchor="start" direction="ltr" writing-mode="lr-tb" unicode-bidi="normal" text-decoration="none" transform="matrix(1 0 0 1 263.505 926)">x[5]</text><text fill="#000000" fill-opacity="1" font-family="Arial,Arial_MSFontService,sans-serif" font-style="normal" font-variant="normal" font-weight="400" font-stretch="normal" font-size="55" text-anchor="start" direction="ltr" writing-mode="lr-tb" unicode-bidi="normal" text-decoration="none" transform="matrix(1 0 0 1 260.059 1043)">x[7]</text><text fill="#000000" fill-opacity="1" font-family="Arial,Arial_MSFontService,sans-serif" font-style="normal" font-variant="normal" font-weight="400" font-stretch="normal" font-size="55" text-anchor="start" direction="ltr" writing-mode="lr-tb" unicode-bidi="normal" text-decoration="none" transform="matrix(1 0 0 1 1476.43 223)">Y</text><text fill="#000000" fill-opacity="1" font-family="Arial,Arial_MSFontService,sans-serif" font-style="normal" font-variant="normal" font-weight="400" font-stretch="normal" font-size="55" text-anchor="start" direction="ltr" writing-mode="lr-tb" unicode-bidi="normal" text-decoration="none" transform="matrix(1 0 0 1 1513.1 223)">[0]</text><text fill="#000000" fill-opacity="1" font-family="Arial,Arial_MSFontService,sans-serif" font-style="normal" font-variant="normal" font-weight="400" font-stretch="normal" font-size="55" text-anchor="start" direction="ltr" writing-mode="lr-tb" unicode-bidi="normal" text-decoration="none" transform="matrix(1 0 0 1 1468.7 345)">Y[</text><text fill="#000000" fill-opacity="1" font-family="Arial,Arial_MSFontService,sans-serif" font-style="normal" font-variant="normal" font-weight="400" font-stretch="normal" font-size="55" text-anchor="start" direction="ltr" writing-mode="lr-tb" unicode-bidi="normal" text-decoration="none" transform="matrix(1 0 0 1 1520.83 345)">[1]</text><text fill="#000000" fill-opacity="1" font-family="Arial,Arial_MSFontService,sans-serif" font-style="normal" font-variant="normal" font-weight="400" font-stretch="normal" font-size="55" text-anchor="start" direction="ltr" writing-mode="lr-tb" unicode-bidi="normal" text-decoration="none" transform="matrix(1 0 0 1 1467.34 465)">Y[</text><text fill="#000000" fill-opacity="1" font-family="Arial,Arial_MSFontService,sans-serif" font-style="normal" font-variant="normal" font-weight="400" font-stretch="normal" font-size="55" text-anchor="start" direction="ltr" writing-mode="lr-tb" unicode-bidi="normal" text-decoration="none" transform="matrix(1 0 0 1 1519.47 465)">[2]</text><text fill="#000000" fill-opacity="1" font-family="Arial,Arial_MSFontService,sans-serif" font-style="normal" font-variant="normal" font-weight="400" font-stretch="normal" font-size="55" text-anchor="start" direction="ltr" writing-mode="lr-tb" unicode-bidi="normal" text-decoration="none" transform="matrix(1 0 0 1 1467.34 579)">Y[</text><text fill="#000000" fill-opacity="1" font-family="Arial,Arial_MSFontService,sans-serif" font-style="normal" font-variant="normal" font-weight="400" font-stretch="normal" font-size="55" text-anchor="start" direction="ltr" writing-mode="lr-tb" unicode-bidi="normal" text-decoration="none" transform="matrix(1 0 0 1 1519.47 579)">[3]</text><text fill="#000000" fill-opacity="1" font-family="Arial,Arial_MSFontService,sans-serif" font-style="normal" font-variant="normal" font-weight="400" font-stretch="normal" font-size="55" text-anchor="start" direction="ltr" writing-mode="lr-tb" unicode-bidi="normal" text-decoration="none" transform="matrix(1 0 0 1 1468.7 695)">Y[</text><text fill="#000000" fill-opacity="1" font-family="Arial,Arial_MSFontService,sans-serif" font-style="normal" font-variant="normal" font-weight="400" font-stretch="normal" font-size="55" text-anchor="start" direction="ltr" writing-mode="lr-tb" unicode-bidi="normal" text-decoration="none" transform="matrix(1 0 0 1 1520.83 695)">[4]</text><text fill="#000000" fill-opacity="1" font-family="Arial,Arial_MSFontService,sans-serif" font-style="normal" font-variant="normal" font-weight="400" font-stretch="normal" font-size="55" text-anchor="start" direction="ltr" writing-mode="lr-tb" unicode-bidi="normal" text-decoration="none" transform="matrix(1 0 0 1 1467.34 811)">Y[</text><text fill="#000000" fill-opacity="1" font-family="Arial,Arial_MSFontService,sans-serif" font-style="normal" font-variant="normal" font-weight="400" font-stretch="normal" font-size="55" text-anchor="start" direction="ltr" writing-mode="lr-tb" unicode-bidi="normal" text-decoration="none" transform="matrix(1 0 0 1 1519.47 811)">[5]</text><text fill="#000000" fill-opacity="1" font-family="Arial,Arial_MSFontService,sans-serif" font-style="normal" font-variant="normal" font-weight="400" font-stretch="normal" font-size="55" text-anchor="start" direction="ltr" writing-mode="lr-tb" unicode-bidi="normal" text-decoration="none" transform="matrix(1 0 0 1 1467.34 926)">Y[</text><text fill="#000000" fill-opacity="1" font-family="Arial,Arial_MSFontService,sans-serif" font-style="normal" font-variant="normal" font-weight="400" font-stretch="normal" font-size="55" text-anchor="start" direction="ltr" writing-mode="lr-tb" unicode-bidi="normal" text-decoration="none" transform="matrix(1 0 0 1 1519.47 926)">[6]</text><text fill="#000000" fill-opacity="1" font-family="Arial,Arial_MSFontService,sans-serif" font-style="normal" font-variant="normal" font-weight="400" font-stretch="normal" font-size="55" text-anchor="start" direction="ltr" writing-mode="lr-tb" unicode-bidi="normal" text-decoration="none" transform="matrix(1 0 0 1 1465.35 1046)">Y[</text><text fill="#000000" fill-opacity="1" font-family="Arial,Arial_MSFontService,sans-serif" font-style="normal" font-variant="normal" font-weight="400" font-stretch="normal" font-size="55" text-anchor="start" direction="ltr" writing-mode="lr-tb" unicode-bidi="normal" text-decoration="none" transform="matrix(1 0 0 1 1517.48 1046)">[7]</text><rect x="560.5" y="144.5" width="290" height="457" stroke="#000000" stroke-width="6.875" stroke-linecap="butt" stroke-linejoin="miter" stroke-miterlimit="8" stroke-opacity="1" fill="#FFFFFF" fill-opacity="1"/><text fill="#000000" fill-opacity="1" font-family="Arial,Arial_MSFontService,sans-serif" font-style="normal" font-variant="normal" font-weight="400" font-stretch="normal" font-size="83" text-anchor="start" direction="ltr" writing-mode="lr-tb" unicode-bidi="normal" text-decoration="none" transform="matrix(1 0 0 1 624.582 403)">DFT</text><rect x="556.5" y="632.5" width="290" height="458" stroke="#000000" stroke-width="6.875" stroke-linecap="butt" stroke-linejoin="miter" stroke-miterlimit="8" stroke-opacity="1" fill="#FFFFFF" fill-opacity="1"/><text fill="#000000" fill-opacity="1" font-family="Arial,Arial_MSFontService,sans-serif" font-style="normal" font-variant="normal" font-weight="400" font-stretch="normal" font-size="83" text-anchor="start" direction="ltr" writing-mode="lr-tb" unicode-bidi="normal" text-decoration="none" transform="matrix(1 0 0 1 621.111 892)">DFT</text></g></svg>