<svg width="1425" height="944" xmlns="http://www.w3.org/2000/svg" xmlns:xlink="http://www.w3.org/1999/xlink" xml:space="preserve" overflow="hidden"><defs><clipPath id="clip0"><rect x="192" y="1324" width="1425" height="944"/></clipPath></defs><g clip-path="url(#clip0)" transform="translate(-192 -1324)"><path d="M378 1385C378 1372.85 387.85 1363 400 1363 412.15 1363 422 1372.85 422 1385 422 1397.15 412.15 1407 400 1407 387.85 1407 378 1397.15 378 1385Z" fill="#000000" fill-rule="evenodd" fill-opacity="1"/><path d="M378 1502C378 1489.85 387.85 1480 400 1480 412.15 1480 422 1489.85 422 1502 422 1514.15 412.15 1524 400 1524 387.85 1524 378 1514.15 378 1502Z" fill="#000000" fill-rule="evenodd" fill-opacity="1"/><path d="M378 1620C378 1607.85 387.85 1598 400 1598 412.15 1598 422 1607.85 422 1620 422 1632.15 412.15 1642 400 1642 387.85 1642 378 1632.15 378 1620Z" fill="#000000" fill-rule="evenodd" fill-opacity="1"/><path d="M378 1737C378 1724.85 387.85 1715 400 1715 412.15 1715 422 1724.85 422 1737 422 1749.15 412.15 1759 400 1759 387.85 1759 378 1749.15 378 1737Z" fill="#000000" fill-rule="evenodd" fill-opacity="1"/><path d="M378 1854C378 1841.85 387.85 1832 400 1832 412.15 1832 422 1841.85 422 1854 422 1866.15 412.15 1876 400 1876 387.85 1876 378 1866.15 378 1854Z" fill="#000000" fill-rule="evenodd" fill-opacity="1"/><path d="M378 1972C378 1959.85 387.85 1950 400 1950 412.15 1950 422 1959.85 422 1972 422 1984.15 412.15 1994 400 1994 387.85 1994 378 1984.15 378 1972Z" fill="#000000" fill-rule="evenodd" fill-opacity="1"/><path d="M378 2089C378 2076.85 387.85 2067 400 2067 412.15 2067 422 2076.85 422 2089 422 2101.15 412.15 2111 400 2111 387.85 2111 378 2101.15 378 2089Z" fill="#000000" fill-rule="evenodd" fill-opacity="1"/><path d="M378 2206C378 2193.85 387.85 2184 400 2184 412.15 2184 422 2193.85 422 2206 422 2218.15 412.15 2228 400 2228 387.85 2228 378 2218.15 378 2206Z" fill="#000000" fill-rule="evenodd" fill-opacity="1"/><path d="M1419 1385C1419 1372.85 1428.85 1363 1441 1363 1453.15 1363 1463 1372.85 1463 1385 1463 1397.15 1453.15 1407 1441 1407 1428.85 1407 1419 1397.15 1419 1385Z" fill="#000000" fill-rule="evenodd" fill-opacity="1"/><path d="M1419 1502C1419 1489.85 1428.85 1480 1441 1480 1453.15 1480 1463 1489.85 1463 1502 1463 1514.15 1453.15 1524 1441 1524 1428.85 1524 1419 1514.15 1419 1502Z" fill="#000000" fill-rule="evenodd" fill-opacity="1"/><path d="M1419 1620C1419 1607.85 1428.85 1598 1441 1598 1453.15 1598 1463 1607.85 1463 1620 1463 1632.15 1453.15 1642 1441 1642 1428.85 1642 1419 1632.15 1419 1620Z" fill="#000000" fill-rule="evenodd" fill-opacity="1"/><path d="M1419 1737C1419 1724.85 1428.85 1715 1441 1715 1453.15 1715 1463 1724.85 1463 1737 1463 1749.15 1453.15 1759 1441 1759 1428.85 1759 1419 1749.15 1419 1737Z" fill="#000000" fill-rule="evenodd" fill-opacity="1"/><path d="M1419 1854C1419 1841.85 1428.85 1832 1441 1832 1453.15 1832 1463 1841.85 1463 1854 1463 1866.15 1453.15 1876 1441 1876 1428.85 1876 1419 1866.15 1419 1854Z" fill="#000000" fill-rule="evenodd" fill-opacity="1"/><path d="M1419 1972C1419 1959.85 1428.85 1950 1441 1950 1453.15 1950 1463 1959.85 1463 1972 1463 1984.15 1453.15 1994 1441 1994 1428.85 1994 1419 1984.15 1419 1972Z" fill="#000000" fill-rule="evenodd" fill-opacity="1"/><path d="M1419 2089C1419 2076.85 1428.85 2067 1441 2067 1453.15 2067 1463 2076.85 1463 2089 1463 2101.15 1453.15 2111 1441 2111 1428.85 2111 1419 2101.15 1419 2089Z" fill="#000000" fill-rule="evenodd" fill-opacity="1"/><path d="M1419 2206C1419 2193.85 1428.85 2184 1441 2184 1453.15 2184 1463 2193.85 1463 2206 1463 2218.15 1453.15 2228 1441 2228 1428.85 2228 1419 2218.15 1419 2206Z" fill="#000000" fill-rule="evenodd" fill-opacity="1"/><path d="M422.5 1385.5 1419.19 1385.5" stroke="#000000" stroke-width="6.875" stroke-linecap="butt" stroke-linejoin="miter" stroke-miterlimit="8" stroke-opacity="1" fill="none" fill-rule="evenodd"/><path d="M422.5 1502.5 1419.19 1502.5" stroke="#000000" stroke-width="6.875" stroke-linecap="butt" stroke-linejoin="miter" stroke-miterlimit="8" stroke-opacity="1" fill="none" fill-rule="evenodd"/><path d="M422.5 1620.5 1419.19 1620.5" stroke="#000000" stroke-width="6.875" stroke-linecap="butt" stroke-linejoin="miter" stroke-miterlimit="8" stroke-opacity="1" fill="none" fill-rule="evenodd"/><path d="M422.5 1737.5 1419.19 1737.5" stroke="#000000" stroke-width="6.875" stroke-linecap="butt" stroke-linejoin="miter" stroke-miterlimit="8" stroke-opacity="1" fill="none" fill-rule="evenodd"/><path d="M422.5 1854.5 1419.19 1854.5" stroke="#000000" stroke-width="6.875" stroke-linecap="butt" stroke-linejoin="miter" stroke-miterlimit="8" stroke-opacity="1" fill="none" fill-rule="evenodd"/><path d="M422.5 1972.5 1419.19 1972.5" stroke="#000000" stroke-width="6.875" stroke-linecap="butt" stroke-linejoin="miter" stroke-miterlimit="8" stroke-opacity="1" fill="none" fill-rule="evenodd"/><path d="M422.5 2089.5 1419.19 2089.5" stroke="#000000" stroke-width="6.875" stroke-linecap="butt" stroke-linejoin="miter" stroke-miterlimit="8" stroke-opacity="1" fill="none" fill-rule="evenodd"/><path d="M422.5 2206.5 1419.19 2206.5" stroke="#000000" stroke-width="6.875" stroke-linecap="butt" stroke-linejoin="miter" stroke-miterlimit="8" stroke-opacity="1" fill="none" fill-rule="evenodd"/><path d="M0 0 438.975 469.333" stroke="#000000" stroke-width="6.875" stroke-linecap="butt" stroke-linejoin="miter" stroke-miterlimit="8" stroke-opacity="1" fill="none" fill-rule="evenodd" transform="matrix(1 0 0 -1 980.5 1854.83)"/><path d="M0 0 438.975 469.333" stroke="#000000" stroke-width="6.875" stroke-linecap="butt" stroke-linejoin="miter" stroke-miterlimit="8" stroke-opacity="1" fill="none" fill-rule="evenodd" transform="matrix(1 0 0 -1 980.5 1971.83)"/><path d="M0 0 438.975 469.333" stroke="#000000" stroke-width="6.875" stroke-linecap="butt" stroke-linejoin="miter" stroke-miterlimit="8" stroke-opacity="1" fill="none" fill-rule="evenodd" transform="matrix(1 0 0 -1 980.5 2089.83)"/><path d="M0 0 438.975 469.331" stroke="#000000" stroke-width="6.875" stroke-linecap="butt" stroke-linejoin="miter" stroke-miterlimit="8" stroke-opacity="1" fill="none" fill-rule="evenodd" transform="matrix(1 0 0 -1 980.5 2206.83)"/><path d="M1419.48 1854.84 980.5 1385.5" stroke="#000000" stroke-width="6.875" stroke-linecap="butt" stroke-linejoin="miter" stroke-miterlimit="8" stroke-opacity="1" fill="none" fill-rule="evenodd"/><path d="M1419.48 1971.83 980.5 1502.5" stroke="#000000" stroke-width="6.875" stroke-linecap="butt" stroke-linejoin="miter" stroke-miterlimit="8" stroke-opacity="1" fill="none" fill-rule="evenodd"/><path d="M1419.48 2089.83 980.5 1620.5" stroke="#000000" stroke-width="6.875" stroke-linecap="butt" stroke-linejoin="miter" stroke-miterlimit="8" stroke-opacity="1" fill="none" fill-rule="evenodd"/><path d="M1419.48 2206.83 980.5 1737.5" stroke="#000000" stroke-width="6.875" stroke-linecap="butt" stroke-linejoin="miter" stroke-miterlimit="8" stroke-opacity="1" fill="none" fill-rule="evenodd"/><path d="M0 0 223.235 231.915" stroke="#000000" stroke-width="6.875" stroke-linecap="butt" stroke-linejoin="miter" stroke-miterlimit="8" stroke-opacity="1" fill="none" fill-rule="evenodd" transform="matrix(1 0 0 -1 698.5 1618.42)"/><path d="M0 0 223.235 231.915" stroke="#000000" stroke-width="6.875" stroke-linecap="butt" stroke-linejoin="miter" stroke-miterlimit="8" stroke-opacity="1" fill="none" fill-rule="evenodd" transform="matrix(1 0 0 -1 698.5 1734.42)"/><path d="M0 0 223.235 231.915" stroke="#000000" stroke-width="6.875" stroke-linecap="butt" stroke-linejoin="miter" stroke-miterlimit="8" stroke-opacity="1" fill="none" fill-rule="evenodd" transform="matrix(1 0 0 -1 698.5 2086.42)"/><path d="M0 0 223.235 231.915" stroke="#000000" stroke-width="6.875" stroke-linecap="butt" stroke-linejoin="miter" stroke-miterlimit="8" stroke-opacity="1" fill="none" fill-rule="evenodd" transform="matrix(1 0 0 -1 698.5 2206.42)"/><path d="M702.5 1857.5 921.69 2092.17" stroke="#000000" stroke-width="6.875" stroke-linecap="butt" stroke-linejoin="miter" stroke-miterlimit="8" stroke-opacity="1" fill="none" fill-rule="evenodd"/><path d="M702.5 1972.5 921.69 2207.17" stroke="#000000" stroke-width="6.875" stroke-linecap="butt" stroke-linejoin="miter" stroke-miterlimit="8" stroke-opacity="1" fill="none" fill-rule="evenodd"/><path d="M702.5 1388.5 921.69 1623.17" stroke="#000000" stroke-width="6.875" stroke-linecap="butt" stroke-linejoin="miter" stroke-miterlimit="8" stroke-opacity="1" fill="none" fill-rule="evenodd"/><path d="M702.5 1502.5 921.69 1737.17" stroke="#000000" stroke-width="6.875" stroke-linecap="butt" stroke-linejoin="miter" stroke-miterlimit="8" stroke-opacity="1" fill="none" fill-rule="evenodd"/><path d="M422.5 1385.5 605.403 1500.08" stroke="#000000" stroke-width="6.875" stroke-linecap="butt" stroke-linejoin="miter" stroke-miterlimit="8" stroke-opacity="1" fill="none" fill-rule="evenodd"/><path d="M422.5 1620.5 600.832 1740.58" stroke="#000000" stroke-width="6.875" stroke-linecap="butt" stroke-linejoin="miter" stroke-miterlimit="8" stroke-opacity="1" fill="none" fill-rule="evenodd"/><path d="M422.5 1854.5 600.832 1969.08" stroke="#000000" stroke-width="6.875" stroke-linecap="butt" stroke-linejoin="miter" stroke-miterlimit="8" stroke-opacity="1" fill="none" fill-rule="evenodd"/><path d="M422.5 2089.5 595.332 2206.83" stroke="#000000" stroke-width="6.875" stroke-linecap="butt" stroke-linejoin="miter" stroke-miterlimit="8" stroke-opacity="1" fill="none" fill-rule="evenodd"/><path d="M0 0 172.832 117.335" stroke="#000000" stroke-width="6.875" stroke-linecap="butt" stroke-linejoin="miter" stroke-miterlimit="8" stroke-opacity="1" fill="none" fill-rule="evenodd" transform="matrix(-1 0 0 1 595.332 2089.5)"/><path d="M0 0 176.558 114.584" stroke="#000000" stroke-width="6.875" stroke-linecap="butt" stroke-linejoin="miter" stroke-miterlimit="8" stroke-opacity="1" fill="none" fill-rule="evenodd" transform="matrix(-1 0 0 1 599.058 1857.5)"/><path d="M0 0 175.784 117.335" stroke="#000000" stroke-width="6.875" stroke-linecap="butt" stroke-linejoin="miter" stroke-miterlimit="8" stroke-opacity="1" fill="none" fill-rule="evenodd" transform="matrix(-1 0 0 1 598.284 1620.5)"/><path d="M0 0 175.784 117.335" stroke="#000000" stroke-width="6.875" stroke-linecap="butt" stroke-linejoin="miter" stroke-miterlimit="8" stroke-opacity="1" fill="none" fill-rule="evenodd" transform="matrix(-1 0 0 1 598.284 1385.5)"/><text fill="#000000" fill-opacity="1" font-family="Arial,Arial_MSFontService,sans-serif" font-style="normal" font-variant="normal" font-weight="400" font-stretch="normal" font-size="55" text-anchor="start" direction="ltr" writing-mode="lr-tb" unicode-bidi="normal" text-decoration="none" transform="matrix(1 0 0 1 270.111 1399)">x[0]</text><text fill="#000000" fill-opacity="1" font-family="Arial,Arial_MSFontService,sans-serif" font-style="normal" font-variant="normal" font-weight="400" font-stretch="normal" font-size="55" text-anchor="start" direction="ltr" writing-mode="lr-tb" unicode-bidi="normal" text-decoration="none" transform="matrix(1 0 0 1 267.195 1512)">x[4]</text><text fill="#000000" fill-opacity="1" font-family="Arial,Arial_MSFontService,sans-serif" font-style="normal" font-variant="normal" font-weight="400" font-stretch="normal" font-size="55" text-anchor="start" direction="ltr" writing-mode="lr-tb" unicode-bidi="normal" text-decoration="none" transform="matrix(1 0 0 1 265.016 1633)">x[2]</text><text fill="#000000" fill-opacity="1" font-family="Arial,Arial_MSFontService,sans-serif" font-style="normal" font-variant="normal" font-weight="400" font-stretch="normal" font-size="55" text-anchor="start" direction="ltr" writing-mode="lr-tb" unicode-bidi="normal" text-decoration="none" transform="matrix(1 0 0 1 265.157 1749)">x[6]</text><text fill="#000000" fill-opacity="1" font-family="Arial,Arial_MSFontService,sans-serif" font-style="normal" font-variant="normal" font-weight="400" font-stretch="normal" font-size="55" text-anchor="start" direction="ltr" writing-mode="lr-tb" unicode-bidi="normal" text-decoration="none" transform="matrix(1 0 0 1 265.74 1869)">x[1]</text><text fill="#000000" fill-opacity="1" font-family="Arial,Arial_MSFontService,sans-serif" font-style="normal" font-variant="normal" font-weight="400" font-stretch="normal" font-size="55" text-anchor="start" direction="ltr" writing-mode="lr-tb" unicode-bidi="normal" text-decoration="none" transform="matrix(1 0 0 1 265.88 1982)">x[5]</text><text fill="#000000" fill-opacity="1" font-family="Arial,Arial_MSFontService,sans-serif" font-style="normal" font-variant="normal" font-weight="400" font-stretch="normal" font-size="55" text-anchor="start" direction="ltr" writing-mode="lr-tb" unicode-bidi="normal" text-decoration="none" transform="matrix(1 0 0 1 267.88 2103)">x[3]</text><text fill="#000000" fill-opacity="1" font-family="Arial,Arial_MSFontService,sans-serif" font-style="normal" font-variant="normal" font-weight="400" font-stretch="normal" font-size="55" text-anchor="start" direction="ltr" writing-mode="lr-tb" unicode-bidi="normal" text-decoration="none" transform="matrix(1 0 0 1 264.434 2219)">x[7]</text><text fill="#000000" fill-opacity="1" font-family="Arial,Arial_MSFontService,sans-serif" font-style="normal" font-variant="normal" font-weight="400" font-stretch="normal" font-size="55" text-anchor="start" direction="ltr" writing-mode="lr-tb" unicode-bidi="normal" text-decoration="none" transform="matrix(1 0 0 1 1477.52 1399)">Y</text><text fill="#000000" fill-opacity="1" font-family="Arial,Arial_MSFontService,sans-serif" font-style="normal" font-variant="normal" font-weight="400" font-stretch="normal" font-size="55" text-anchor="start" direction="ltr" writing-mode="lr-tb" unicode-bidi="normal" text-decoration="none" transform="matrix(1 0 0 1 1514.19 1399)">[0]</text><text fill="#000000" fill-opacity="1" font-family="Arial,Arial_MSFontService,sans-serif" font-style="normal" font-variant="normal" font-weight="400" font-stretch="normal" font-size="55" text-anchor="start" direction="ltr" writing-mode="lr-tb" unicode-bidi="normal" text-decoration="none" transform="matrix(1 0 0 1 1469.79 1521)">Y[</text><text fill="#000000" fill-opacity="1" font-family="Arial,Arial_MSFontService,sans-serif" font-style="normal" font-variant="normal" font-weight="400" font-stretch="normal" font-size="55" text-anchor="start" direction="ltr" writing-mode="lr-tb" unicode-bidi="normal" text-decoration="none" transform="matrix(1 0 0 1 1521.92 1521)">[1]</text><text fill="#000000" fill-opacity="1" font-family="Arial,Arial_MSFontService,sans-serif" font-style="normal" font-variant="normal" font-weight="400" font-stretch="normal" font-size="55" text-anchor="start" direction="ltr" writing-mode="lr-tb" unicode-bidi="normal" text-decoration="none" transform="matrix(1 0 0 1 1468.43 1642)">Y[</text><text fill="#000000" fill-opacity="1" font-family="Arial,Arial_MSFontService,sans-serif" font-style="normal" font-variant="normal" font-weight="400" font-stretch="normal" font-size="55" text-anchor="start" direction="ltr" writing-mode="lr-tb" unicode-bidi="normal" text-decoration="none" transform="matrix(1 0 0 1 1520.56 1642)">[2]</text><text fill="#000000" fill-opacity="1" font-family="Arial,Arial_MSFontService,sans-serif" font-style="normal" font-variant="normal" font-weight="400" font-stretch="normal" font-size="55" text-anchor="start" direction="ltr" writing-mode="lr-tb" unicode-bidi="normal" text-decoration="none" transform="matrix(1 0 0 1 1468.43 1755)">Y[</text><text fill="#000000" fill-opacity="1" font-family="Arial,Arial_MSFontService,sans-serif" font-style="normal" font-variant="normal" font-weight="400" font-stretch="normal" font-size="55" text-anchor="start" direction="ltr" writing-mode="lr-tb" unicode-bidi="normal" text-decoration="none" transform="matrix(1 0 0 1 1520.56 1755)">[3]</text><text fill="#000000" fill-opacity="1" font-family="Arial,Arial_MSFontService,sans-serif" font-style="normal" font-variant="normal" font-weight="400" font-stretch="normal" font-size="55" text-anchor="start" direction="ltr" writing-mode="lr-tb" unicode-bidi="normal" text-decoration="none" transform="matrix(1 0 0 1 1469.79 1871)">Y[</text><text fill="#000000" fill-opacity="1" font-family="Arial,Arial_MSFontService,sans-serif" font-style="normal" font-variant="normal" font-weight="400" font-stretch="normal" font-size="55" text-anchor="start" direction="ltr" writing-mode="lr-tb" unicode-bidi="normal" text-decoration="none" transform="matrix(1 0 0 1 1521.92 1871)">[4]</text><text fill="#000000" fill-opacity="1" font-family="Arial,Arial_MSFontService,sans-serif" font-style="normal" font-variant="normal" font-weight="400" font-stretch="normal" font-size="55" text-anchor="start" direction="ltr" writing-mode="lr-tb" unicode-bidi="normal" text-decoration="none" transform="matrix(1 0 0 1 1468.43 1988)">Y[</text><text fill="#000000" fill-opacity="1" font-family="Arial,Arial_MSFontService,sans-serif" font-style="normal" font-variant="normal" font-weight="400" font-stretch="normal" font-size="55" text-anchor="start" direction="ltr" writing-mode="lr-tb" unicode-bidi="normal" text-decoration="none" transform="matrix(1 0 0 1 1520.56 1988)">[5]</text><text fill="#000000" fill-opacity="1" font-family="Arial,Arial_MSFontService,sans-serif" font-style="normal" font-variant="normal" font-weight="400" font-stretch="normal" font-size="55" text-anchor="start" direction="ltr" writing-mode="lr-tb" unicode-bidi="normal" text-decoration="none" transform="matrix(1 0 0 1 1468.43 2102)">Y[</text><text fill="#000000" fill-opacity="1" font-family="Arial,Arial_MSFontService,sans-serif" font-style="normal" font-variant="normal" font-weight="400" font-stretch="normal" font-size="55" text-anchor="start" direction="ltr" writing-mode="lr-tb" unicode-bidi="normal" text-decoration="none" transform="matrix(1 0 0 1 1520.56 2102)">[6]</text><text fill="#000000" fill-opacity="1" font-family="Arial,Arial_MSFontService,sans-serif" font-style="normal" font-variant="normal" font-weight="400" font-stretch="normal" font-size="55" text-anchor="start" direction="ltr" writing-mode="lr-tb" unicode-bidi="normal" text-decoration="none" transform="matrix(1 0 0 1 1466.44 2222)">Y[</text><text fill="#000000" fill-opacity="1" font-family="Arial,Arial_MSFontService,sans-serif" font-style="normal" font-variant="normal" font-weight="400" font-stretch="normal" font-size="55" text-anchor="start" direction="ltr" writing-mode="lr-tb" unicode-bidi="normal" text-decoration="none" transform="matrix(1 0 0 1 1518.58 2222)">[7]</text></g></svg>